<svg width="1300" height="600" viewBox="0 0 1300 600" fill="none" xmlns="http://www.w3.org/2000/svg">
<g clip-path="url(#clip0_81_2953)">
<rect width="1300" height="600" rx="16" fill="white"/>
<rect width="1300" height="600" fill="white"/>
<path d="M26.6543 27.6393L52.7724 19.2905L34.1303 37.0341L26.6543 27.6393Z" fill="#EA580C" stroke="#EA580C" stroke-width="0.386933"/>
<path d="M53.5092 37.4025L27.92 45.6284L46.2023 27.9774L53.5092 37.4025Z" fill="#EA580C" stroke="#EA580C" stroke-width="0.386933"/>
<path d="M72.112 41.288C70.976 41.288 69.92 41.08 68.944 40.664C67.984 40.248 67.152 39.672 66.448 38.936C65.76 38.184 65.256 37.312 64.936 36.32L67.648 35.144C68.08 36.168 68.704 36.976 69.52 37.568C70.336 38.144 71.256 38.432 72.28 38.432C72.856 38.432 73.352 38.344 73.768 38.168C74.2 37.976 74.528 37.72 74.752 37.4C74.992 37.08 75.112 36.696 75.112 36.248C75.112 35.72 74.952 35.288 74.632 34.952C74.328 34.6 73.864 34.328 73.24 34.136L69.808 33.032C68.416 32.6 67.368 31.952 66.664 31.088C65.96 30.224 65.608 29.208 65.608 28.04C65.608 27.016 65.856 26.112 66.352 25.328C66.864 24.544 67.568 23.936 68.464 23.504C69.376 23.056 70.416 22.832 71.584 22.832C72.656 22.832 73.64 23.024 74.536 23.408C75.432 23.776 76.2 24.296 76.84 24.968C77.496 25.624 77.984 26.4 78.304 27.296L75.616 28.496C75.264 27.6 74.736 26.912 74.032 26.432C73.328 25.936 72.512 25.688 71.584 25.688C71.04 25.688 70.56 25.784 70.144 25.976C69.728 26.152 69.4 26.408 69.16 26.744C68.936 27.064 68.824 27.448 68.824 27.896C68.824 28.392 68.984 28.832 69.304 29.216C69.624 29.584 70.112 29.872 70.768 30.08L74.056 31.112C75.48 31.576 76.544 32.216 77.248 33.032C77.968 33.848 78.328 34.856 78.328 36.056C78.328 37.08 78.064 37.984 77.536 38.768C77.008 39.552 76.28 40.168 75.352 40.616C74.424 41.064 73.344 41.288 72.112 41.288ZM81.0031 45.8V27.944H83.9551V30.536L83.6671 29.888C84.1151 29.184 84.7231 28.64 85.4911 28.256C86.2591 27.856 87.1471 27.656 88.1551 27.656C89.3871 27.656 90.4991 27.96 91.4911 28.568C92.4831 29.176 93.2671 29.992 93.8431 31.016C94.4351 32.04 94.7311 33.192 94.7311 34.472C94.7311 35.736 94.4431 36.888 93.8671 37.928C93.2911 38.968 92.5071 39.792 91.5151 40.4C90.5231 40.992 89.3951 41.288 88.1311 41.288C87.1871 41.288 86.3151 41.104 85.5151 40.736C84.7311 40.352 84.1071 39.808 83.6431 39.104L84.1471 38.48V45.8H81.0031ZM87.7711 38.408C88.4911 38.408 89.1311 38.24 89.6911 37.904C90.2511 37.568 90.6831 37.104 90.9871 36.512C91.3071 35.92 91.4671 35.24 91.4671 34.472C91.4671 33.704 91.3071 33.032 90.9871 32.456C90.6831 31.864 90.2511 31.4 89.6911 31.064C89.1311 30.712 88.4911 30.536 87.7711 30.536C87.0831 30.536 86.4591 30.704 85.8991 31.04C85.3551 31.376 84.9231 31.848 84.6031 32.456C84.2991 33.048 84.1471 33.72 84.1471 34.472C84.1471 35.24 84.2991 35.92 84.6031 36.512C84.9231 37.104 85.3551 37.568 85.8991 37.904C86.4591 38.24 87.0831 38.408 87.7711 38.408ZM97.1281 41V27.944H100.272V41H97.1281ZM97.1281 26.48V23.12H100.272V26.48H97.1281ZM103.175 41V27.944H106.127V30.848L105.887 30.416C106.191 29.44 106.663 28.76 107.303 28.376C107.959 27.992 108.743 27.8 109.655 27.8H110.423V30.584H109.295C108.399 30.584 107.679 30.864 107.135 31.424C106.591 31.968 106.319 32.736 106.319 33.728V41H103.175ZM118.344 41.288C117 41.288 115.824 40.984 114.816 40.376C113.808 39.768 113.024 38.944 112.464 37.904C111.904 36.864 111.624 35.712 111.624 34.448C111.624 33.136 111.904 31.976 112.464 30.968C113.04 29.944 113.816 29.136 114.792 28.544C115.784 27.952 116.888 27.656 118.104 27.656C119.128 27.656 120.024 27.824 120.792 28.16C121.576 28.496 122.24 28.96 122.784 29.552C123.328 30.144 123.744 30.824 124.032 31.592C124.32 32.344 124.464 33.16 124.464 34.04C124.464 34.264 124.448 34.496 124.416 34.736C124.4 34.976 124.36 35.184 124.296 35.36H114.215V32.96H122.52L121.032 34.088C121.176 33.352 121.136 32.696 120.912 32.12C120.704 31.544 120.352 31.088 119.856 30.752C119.376 30.416 118.792 30.248 118.104 30.248C117.448 30.248 116.864 30.416 116.352 30.752C115.84 31.072 115.448 31.552 115.176 32.192C114.92 32.816 114.824 33.576 114.888 34.472C114.824 35.272 114.928 35.984 115.2 36.608C115.488 37.216 115.904 37.688 116.448 38.024C117.008 38.36 117.648 38.528 118.368 38.528C119.088 38.528 119.696 38.376 120.192 38.072C120.704 37.768 121.104 37.36 121.392 36.848L123.936 38.096C123.68 38.72 123.28 39.272 122.736 39.752C122.192 40.232 121.544 40.608 120.792 40.88C120.056 41.152 119.24 41.288 118.344 41.288Z" fill="#0D0A09"/>
<rect x="527.5" y="20.5" width="349" height="23" rx="11.5" fill="#E9EAEE"/>
<rect x="527.5" y="20.5" width="349" height="23" rx="11.5" stroke="#E9EAEE"/>
<rect x="1204" y="20" width="24" height="24" rx="12" fill="#9396A9" fill-opacity="0.2"/>
<rect x="1244" y="20" width="24" height="24" rx="12" fill="#9396A9" fill-opacity="0.2"/>
<path d="M1300 63H0V65H1300V63Z" fill="#F1F5F9" mask="url(#path-2-inside-1_81_2953)"/>
<rect x="24" y="86" width="100" height="12" rx="6" fill="#9396A9" fill-opacity="0.2"/>
<rect x="1176.5" y="80.5" width="99" height="23" rx="11.5" fill="#E9EAEE"/>
<rect x="1176.5" y="80.5" width="99" height="23" rx="11.5" stroke="#E9EAEE"/>
<path d="M1300 119H0V121H1300V119Z" fill="#F1F5F9" mask="url(#path-11-inside-2_81_2953)"/>
<g clip-path="url(#clip1_81_2953)">
<rect x="24" y="158" width="112" height="12" rx="6" fill="#9396A9" fill-opacity="0.2"/>
<path d="M158 161L164 167L170 161" stroke="#9396A9" stroke-opacity="0.2" stroke-width="2" stroke-linecap="round" stroke-linejoin="round"/>
<path d="M176 191H24V193H176V191Z" fill="#F1F5F9" mask="url(#path-15-inside-3_81_2953)"/>
<rect x="24" y="214" width="112" height="12" rx="6" fill="#9396A9" fill-opacity="0.2"/>
<path d="M158 217L164 223L170 217" stroke="#9396A9" stroke-opacity="0.2" stroke-width="2" stroke-linecap="round" stroke-linejoin="round"/>
<path d="M176 247H24V249H176V247Z" fill="#F1F5F9" mask="url(#path-19-inside-4_81_2953)"/>
<rect x="24" y="270" width="112" height="12" rx="6" fill="#9396A9" fill-opacity="0.2"/>
<path d="M158 273L164 279L170 273" stroke="#9396A9" stroke-opacity="0.2" stroke-width="2" stroke-linecap="round" stroke-linejoin="round"/>
<path d="M176 303H24V305H176V303Z" fill="#F1F5F9" mask="url(#path-23-inside-5_81_2953)"/>
<rect x="240.5" y="152.5" width="328.333" height="199" rx="15.5" fill="#F9FAFB"/>
<rect x="240.5" y="152.5" width="328.333" height="199" rx="15.5" stroke="#E9EAEE"/>
<rect x="585.833" y="152.5" width="328.333" height="199" rx="15.5" fill="#F9FAFB"/>
<rect x="585.833" y="152.5" width="328.333" height="199" rx="15.5" stroke="#E9EAEE"/>
<rect x="931.167" y="152.5" width="328.333" height="199" rx="15.5" fill="#F9FAFB"/>
<rect x="931.167" y="152.5" width="328.333" height="199" rx="15.5" stroke="#E9EAEE"/>
<rect x="240.5" y="368.5" width="328.333" height="199" rx="15.5" fill="#F9FAFB"/>
<rect x="240.5" y="368.5" width="328.333" height="199" rx="15.5" stroke="#E9EAEE"/>
<rect x="585.833" y="368.5" width="328.333" height="199" rx="15.5" fill="#F9FAFB"/>
<rect x="585.833" y="368.5" width="328.333" height="199" rx="15.5" stroke="#E9EAEE"/>
<rect x="931.167" y="368.5" width="328.333" height="199" rx="15.5" fill="#F9FAFB"/>
<rect x="931.167" y="368.5" width="328.333" height="199" rx="15.5" stroke="#E9EAEE"/>
</g>
</g>
<defs>
<clipPath id="clip0_81_2953">
<rect width="1300" height="600" rx="16" fill="white"/>
</clipPath>
<clipPath id="clip1_81_2953">
<rect width="1300" height="480" fill="white" transform="translate(0 120)"/>
</clipPath>
</defs>
</svg>
